# xmcd
#
# Track frame offsets:
# 150
# 20036
# 34578
# 53185
# 67427
# 84430
# 106128
# 122384
# 136261
# 150479
# 171970
# 185180
# 202722
# 222238
# 241456
# 256624
# 271773
# 287468
# 299672
# 316312
# 332196
#
# Disc length: 4666 seconds
#
# Revision: 0
# Processed by: cddbd v1.4PL0 Copyright (c) Steve Scherf et al.
# Submitted via: Axialis_AX_CDPlayer 2.6
#
DISCID=33123815
DTITLE=Chris Isaak - The Best of Chris Isaak
DYEAR=1900
DGENRE=
TTITLE0=One Day
TTITLE1=Blue Hotel
TTITLE2=Nothing's Changed
TTITLE3=Pretty Girls Don't Cry
TTITLE4=Dancin'
TTITLE5=Wicked Games
TTITLE6=Please
TTITLE7=Back On Your Side
TTITLE8=Talk To Me
TTITLE9=Kings Of The Highway
TTITLE10=Lovers Game
TTITLE11=You Owe Me Some Kind Of Live
TTITLE12=Wrong To Love You
TTITLE13=Lie To Me
TTITLE14=Funeral In The Rain
TTITLE15=Heart Full Of Soul
TTITLE16=Heart Shaped World
TTITLE17=Voodoo
TTITLE18=Waiting For The Rain To Fall
TTITLE19=Speak Off The Devil
TTITLE20=Dancin' (From Beja Sessions)
EXTD=
EXTT0=
EXTT1=
EXTT2=
EXTT3=
EXTT4=
EXTT5=
EXTT6=
EXTT7=
EXTT8=
EXTT9=
EXTT10=
EXTT11=
EXTT12=
EXTT13=
EXTT14=
EXTT15=
EXTT16=
EXTT17=
EXTT18=
EXTT19=
EXTT20=
PLAYORDER=
